<svg width="1200" height="820" viewBox="0 0 1200 820" fill="none" xmlns="http://www.w3.org/2000/svg">
  <rect width="1200" height="820" rx="34" fill="#FFF8EA"/>
  <rect x="46" y="44" width="1108" height="732" rx="28" fill="#FFFDF7" stroke="#E2D2B5" stroke-width="4"/>

  <text x="82" y="116" fill="#23344A" font-family="Verdana, sans-serif" font-size="44" font-weight="700">
    Regiones del oído
  </text>
  <text x="82" y="154" fill="#5C6A7B" font-family="Verdana, sans-serif" font-size="24">
    Esquema anatómico simplificado usado como mapa del cuaderno
  </text>

  <rect x="84" y="196" width="320" height="92" rx="22" fill="#DDF0ED"/>
  <text x="112" y="246" fill="#0F766E" font-family="Verdana, sans-serif" font-size="28" font-weight="700">Oído externo</text>
  <text x="112" y="274" fill="#476174" font-family="Verdana, sans-serif" font-size="20">pabellón auricular + conducto auditivo</text>

  <rect x="438" y="196" width="312" height="92" rx="22" fill="#F7E8D6"/>
  <text x="466" y="246" fill="#B35E43" font-family="Verdana, sans-serif" font-size="28" font-weight="700">Oído medio</text>
  <text x="466" y="274" fill="#65533F" font-family="Verdana, sans-serif" font-size="20">tímpano + huesecillos</text>

  <rect x="782" y="196" width="316" height="92" rx="22" fill="#E6EEFC"/>
  <text x="810" y="246" fill="#215399" font-family="Verdana, sans-serif" font-size="28" font-weight="700">Oído interno</text>
  <text x="810" y="274" fill="#4E6278" font-family="Verdana, sans-serif" font-size="20">cóclea + nervio coclear</text>

  <path d="M236 500C182 478 148 430 148 376C148 298 206 236 286 236C342 236 390 266 420 320" stroke="#D48B5E" stroke-width="38" stroke-linecap="round"/>
  <path d="M258 540C202 526 174 488 174 434C174 360 230 312 292 312C332 312 366 330 390 364" stroke="#F2D3B5" stroke-width="16" stroke-linecap="round"/>
  <path d="M398 364H512" stroke="#E09A68" stroke-width="28" stroke-linecap="round"/>
  <path d="M512 338L548 402" stroke="#D85D53" stroke-width="10"/>
  <path d="M548 340L586 398" stroke="#D85D53" stroke-width="10"/>
  <path d="M586 344L620 394" stroke="#D85D53" stroke-width="10"/>
  <circle cx="548" cy="338" r="18" fill="#FFF0E2" stroke="#D85D53" stroke-width="8"/>
  <circle cx="586" cy="398" r="16" fill="#FFF0E2" stroke="#D85D53" stroke-width="8"/>
  <circle cx="620" cy="344" r="16" fill="#FFF0E2" stroke="#D85D53" stroke-width="8"/>

  <path d="M660 356C698 360 718 384 718 412C718 450 690 482 646 482C604 482 576 452 576 420C576 392 594 368 632 360" fill="#FFE0BD" stroke="#C96A51" stroke-width="14"/>
  <path d="M694 402C760 396 826 420 876 464" stroke="#0F766E" stroke-width="9" stroke-linecap="round" stroke-dasharray="16 14"/>
  <circle cx="890" cy="474" r="14" fill="#0F766E"/>
  <path d="M818 372C784 404 772 446 784 486C796 526 832 560 876 568" stroke="#2E7DB5" stroke-width="22" stroke-linecap="round"/>
  <path d="M832 396C806 420 798 450 806 478C814 506 840 534 872 542" stroke="#9FD0FF" stroke-width="10" stroke-linecap="round"/>

  <g fill="#23344A" font-family="Verdana, sans-serif" font-size="22" font-weight="700">
    <text x="150" y="590">Pabellón auricular</text>
    <text x="374" y="338">Conducto auditivo</text>
    <text x="474" y="452">Martillo</text>
    <text x="576" y="452">Yunque</text>
    <text x="642" y="316">Estribo</text>
    <text x="792" y="330">Cóclea</text>
    <text x="910" y="468">Nervio coclear</text>
  </g>

  <g stroke="#8A7760" stroke-width="3">
    <path d="M272 566L264 534"/>
    <path d="M438 332L420 364"/>
    <path d="M520 440L544 354"/>
    <path d="M612 436L590 404"/>
    <path d="M676 318L624 344"/>
    <path d="M826 338L816 372"/>
    <path d="M930 458L894 474"/>
  </g>
</svg>
