<svg width="1200" height="820" viewBox="0 0 1200 820" fill="none" xmlns="http://www.w3.org/2000/svg">
  <rect width="1200" height="820" rx="34" fill="#FFF8EA"/>
  <rect x="48" y="48" width="1104" height="724" rx="28" fill="#FFFDF7" stroke="#E2D2B5" stroke-width="4"/>

  <text x="84" y="116" fill="#23344A" font-family="Verdana, sans-serif" font-size="42" font-weight="700">
    Cono de Mach y onda de choque
  </text>
  <text x="84" y="154" fill="#5C6A7B" font-family="Verdana, sans-serif" font-size="24">
    Una fuente supersónica adelanta a los frentes de onda que emite
  </text>

  <line x1="94" y1="608" x2="1106" y2="608" stroke="#D8C9AF" stroke-width="8" stroke-linecap="round"/>

  <path d="M392 320C458 320 522 350 576 420" stroke="#D88C55" stroke-width="8"/>
  <path d="M336 420C446 420 548 470 620 566" stroke="#D88C55" stroke-width="8"/>
  <path d="M280 518C434 518 572 590 658 708" stroke="#D88C55" stroke-width="8"/>

  <g>
    <path d="M834 386L956 420L834 454L862 420L834 386Z" fill="#215399"/>
    <rect x="728" y="402" width="122" height="36" rx="18" fill="#4B87C1"/>
  </g>

  <path d="M844 420L536 246" stroke="#0F766E" stroke-width="10" stroke-linecap="round"/>
  <path d="M844 420L536 594" stroke="#0F766E" stroke-width="10" stroke-linecap="round"/>
  <path d="M680 324A198 198 0 0 1 680 516" stroke="#0F766E" stroke-width="6" stroke-dasharray="14 12"/>

  <circle cx="844" cy="420" r="12" fill="#0F766E"/>
  <text x="866" y="424" fill="#0F766E" font-family="Verdana, sans-serif" font-size="24" font-weight="700">
    fuente supersónica
  </text>

  <rect x="120" y="252" width="288" height="132" rx="24" fill="#E5F3EF"/>
  <text x="148" y="304" fill="#0F766E" font-family="Verdana, sans-serif" font-size="26" font-weight="700">
    Antes de Mach 1
  </text>
  <text x="148" y="342" fill="#4E6278" font-family="Verdana, sans-serif" font-size="20">
    La fuente no alcanza a sus propias perturbaciones.
  </text>

  <rect x="120" y="452" width="288" height="132" rx="24" fill="#F8E8D6"/>
  <text x="148" y="504" fill="#B35E43" font-family="Verdana, sans-serif" font-size="26" font-weight="700">
    Después de Mach 1
  </text>
  <text x="148" y="542" fill="#4E6278" font-family="Verdana, sans-serif" font-size="20">
    Aparece un frente de choque con sobrepresión brusca.
  </text>

  <text x="612" y="278" fill="#0F766E" font-family="Verdana, sans-serif" font-size="24" font-weight="700">μ</text>
</svg>
