<svg width="1200" height="900" viewBox="0 0 1200 900" fill="none" xmlns="http://www.w3.org/2000/svg">
  <defs>
    <linearGradient id="bg" x1="160" y1="80" x2="1060" y2="820" gradientUnits="userSpaceOnUse">
      <stop stop-color="#FFF7E7"/>
      <stop offset="1" stop-color="#F0E2C7"/>
    </linearGradient>
    <linearGradient id="wave" x1="172" y1="353" x2="426" y2="353" gradientUnits="userSpaceOnUse">
      <stop stop-color="#2C8E86"/>
      <stop offset="1" stop-color="#0F5F7A"/>
    </linearGradient>
    <linearGradient id="ear" x1="576" y1="228" x2="866" y2="709" gradientUnits="userSpaceOnUse">
      <stop stop-color="#E9A36F"/>
      <stop offset="1" stop-color="#C96A51"/>
    </linearGradient>
    <filter id="shadow" x="116" y="58" width="968" height="714" filterUnits="userSpaceOnUse" color-interpolation-filters="sRGB">
      <feDropShadow dx="0" dy="24" stdDeviation="22" flood-color="#7C5D35" flood-opacity="0.14"/>
    </filter>
  </defs>

  <rect width="1200" height="900" rx="42" fill="url(#bg)"/>
  <path d="M0 126H1200" stroke="#C8D7EA" stroke-opacity="0.45" stroke-width="3"/>
  <path d="M0 228H1200" stroke="#C8D7EA" stroke-opacity="0.45" stroke-width="3"/>
  <path d="M0 330H1200" stroke="#C8D7EA" stroke-opacity="0.45" stroke-width="3"/>
  <path d="M0 432H1200" stroke="#C8D7EA" stroke-opacity="0.45" stroke-width="3"/>
  <path d="M0 534H1200" stroke="#C8D7EA" stroke-opacity="0.45" stroke-width="3"/>
  <path d="M0 636H1200" stroke="#C8D7EA" stroke-opacity="0.45" stroke-width="3"/>
  <path d="M0 738H1200" stroke="#C8D7EA" stroke-opacity="0.45" stroke-width="3"/>
  <rect x="116" y="62" width="12" height="770" fill="#D96B64" fill-opacity="0.38"/>

  <g filter="url(#shadow)">
    <rect x="146" y="86" width="908" height="646" rx="34" fill="#FFFCF5" fill-opacity="0.74"/>
  </g>

  <text x="184" y="176" fill="#0F5F7A" font-family="Verdana, sans-serif" font-size="30" font-weight="700">
    Física del oído y del sonido
  </text>
  <text x="184" y="222" fill="#33445D" font-family="Verdana, sans-serif" font-size="74" font-weight="700">
    Cuaderno interactivo
  </text>
  <text x="184" y="272" fill="#5F6D7F" font-family="Verdana, sans-serif" font-size="28">
    Anatomía, ondas, cóclea, Doppler y ondas de choque
  </text>

  <g opacity="0.95">
    <path d="M172 352C206 310 250 286 314 286C378 286 422 310 456 352" stroke="url(#wave)" stroke-width="14" stroke-linecap="round"/>
    <path d="M178 400C222 348 274 322 314 322C354 322 406 348 450 400" stroke="url(#wave)" stroke-width="10" stroke-linecap="round"/>
    <path d="M196 446C238 404 278 386 314 386C350 386 390 404 432 446" stroke="url(#wave)" stroke-width="8" stroke-linecap="round"/>
    <circle cx="314" cy="370" r="18" fill="#0F766E"/>
  </g>

  <g>
    <path d="M724 226C648 228 586 286 586 376C586 462 632 516 676 560C712 596 736 626 736 672C736 706 716 730 684 730C654 730 630 710 628 678" stroke="url(#ear)" stroke-width="38" stroke-linecap="round"/>
    <path d="M730 292C690 294 654 326 654 378C654 428 678 456 712 490C742 520 764 544 764 590C764 626 746 654 718 666" stroke="#F2D4BA" stroke-width="18" stroke-linecap="round"/>
    <path d="M786 410C748 426 734 456 734 486C734 516 754 540 792 540C828 540 852 512 852 472C852 436 830 410 796 410" fill="#FFD9B5" stroke="#C96A51" stroke-width="16"/>
    <path d="M824 448C804 452 790 470 790 492C790 516 808 536 832 536C854 536 874 518 874 492C874 468 854 448 824 448Z" fill="#FFF4E4" stroke="#C96A51" stroke-width="12"/>
    <path d="M842 482C912 474 970 442 1000 382" stroke="#0F766E" stroke-width="10" stroke-linecap="round" stroke-dasharray="14 18"/>
    <circle cx="1008" cy="374" r="16" fill="#0F766E"/>
  </g>

  <g>
    <rect x="186" y="594" width="214" height="92" rx="22" fill="#DDEEEB"/>
    <text x="214" y="635" fill="#0F766E" font-family="Verdana, sans-serif" font-size="22" font-weight="700">Externo</text>
    <text x="214" y="668" fill="#506176" font-family="Verdana, sans-serif" font-size="20">capta y dirige</text>

    <rect x="430" y="594" width="214" height="92" rx="22" fill="#F8E7D4"/>
    <text x="458" y="635" fill="#B35E43" font-family="Verdana, sans-serif" font-size="22" font-weight="700">Medio</text>
    <text x="458" y="668" fill="#6F5A45" font-family="Verdana, sans-serif" font-size="20">transmite y adapta</text>

    <rect x="674" y="594" width="214" height="92" rx="22" fill="#E4ECFB"/>
    <text x="702" y="635" fill="#1F4D8C" font-family="Verdana, sans-serif" font-size="22" font-weight="700">Interno</text>
    <text x="702" y="668" fill="#516173" font-family="Verdana, sans-serif" font-size="20">convierte y codifica</text>
  </g>

  <text x="184" y="788" fill="#6F5A45" font-family="Verdana, sans-serif" font-size="24">
    Proyecto reconstruido desde el PDF del oído y ampliado con física de ondas y simulaciones.
  </text>
</svg>
