<svg width="1200" height="820" viewBox="0 0 1200 820" fill="none" xmlns="http://www.w3.org/2000/svg">
  <rect width="1200" height="820" rx="34" fill="#FFF8EA"/>
  <rect x="46" y="44" width="1108" height="732" rx="28" fill="#FFFDF7" stroke="#E2D2B5" stroke-width="4"/>

  <text x="82" y="116" fill="#23344A" font-family="Verdana, sans-serif" font-size="42" font-weight="700">
    Protección auditiva
  </text>
  <text x="82" y="154" fill="#5C6A7B" font-family="Verdana, sans-serif" font-size="24">
    Intensidad, distancia y tiempo determinan el riesgo
  </text>

  <circle cx="360" cy="428" r="136" fill="#F4E2CB"/>
  <ellipse cx="252" cy="428" rx="42" ry="84" fill="#D88C55"/>
  <ellipse cx="468" cy="428" rx="42" ry="84" fill="#D88C55"/>
  <path d="M256 330C306 260 414 258 464 330" stroke="#23344A" stroke-width="18" stroke-linecap="round"/>
  <rect x="210" y="352" width="84" height="152" rx="36" fill="#0F766E"/>
  <rect x="426" y="352" width="84" height="152" rx="36" fill="#0F766E"/>

  <rect x="620" y="274" width="420" height="118" rx="24" fill="#E5F3EF"/>
  <text x="648" y="326" fill="#0F766E" font-family="Verdana, sans-serif" font-size="26" font-weight="700">
    85 dBA o más
  </text>
  <text x="648" y="364" fill="#4E6278" font-family="Verdana, sans-serif" font-size="20">
    puede ser dañino si la exposición es larga o repetida
  </text>

  <rect x="620" y="428" width="420" height="118" rx="24" fill="#F8E8D6"/>
  <text x="648" y="480" fill="#B35E43" font-family="Verdana, sans-serif" font-size="26" font-weight="700">
    Muy fuerte + muy cerca + mucho tiempo
  </text>
  <text x="648" y="518" fill="#4E6278" font-family="Verdana, sans-serif" font-size="20">
    es la combinación que más eleva el riesgo
  </text>

  <g>
    <rect x="188" y="620" width="352" height="68" rx="34" fill="#E8EDF7"/>
    <rect x="204" y="636" width="232" height="36" rx="18" fill="#215399"/>
    <circle cx="460" cy="654" r="26" fill="#FFF7EA" stroke="#215399" stroke-width="8"/>
    <text x="188" y="594" fill="#23344A" font-family="Verdana, sans-serif" font-size="26" font-weight="700">
      Mantén volumen moderado en audífonos
    </text>
  </g>

  <g>
    <circle cx="890" cy="648" r="54" fill="#FFF0DD" stroke="#D88C55" stroke-width="10"/>
    <path d="M890 612V648L920 666" stroke="#B35E43" stroke-width="10" stroke-linecap="round"/>
    <text x="780" y="594" fill="#23344A" font-family="Verdana, sans-serif" font-size="26" font-weight="700">
      Reduce tiempo de exposición
    </text>
  </g>
</svg>
